<?xml version="1.0" standalone="no"?>
<!DOCTYPE svg PUBLIC "-//W3C//DTD SVG 20010904//EN"
 "http://www.w3.org/TR/2001/REC-SVG-20010904/DTD/svg10.dtd">
<svg version="1.0" xmlns="http://www.w3.org/2000/svg"
 width="225.000000pt" height="225.000000pt" viewBox="0 0 225.000000 225.000000"
 preserveAspectRatio="xMidYMid meet">

<g transform="translate(0.000000,225.000000) scale(0.100000,-0.100000)"
fill="#000000" stroke="none">
<path d="M439 1554 c-446 -367 -441 -362 -437 -388 4 -26 815 -696 844 -696
26 0 44 18 44 45 0 15 -103 105 -385 339 l-386 317 154 127 c84 70 255 210
380 312 133 109 229 194 233 208 8 28 -11 52 -41 52 -15 0 -154 -108 -406
-316z"/>
<path d="M746 1538 c-259 -212 -408 -342 -412 -356 -5 -18 0 -31 22 -52 73
-72 800 -660 815 -660 44 0 49 22 49 210 l0 179 38 8 c20 4 102 8 182 8 125 0
155 -3 215 -23 195 -65 354 -196 465 -382 45 -75 59 -90 85 -90 42 0 48 21 40
133 -20 296 -103 504 -269 675 -157 163 -387 270 -646 302 -46 5 -90 10 -97
10 -10 0 -13 38 -13 166 0 95 -4 174 -10 185 -24 44 -50 26 -464 -313z m404
-119 c8 -4 68 -12 132 -19 365 -36 633 -201 767 -472 47 -96 70 -167 90 -273
5 -25 6 -45 2 -45 -3 1 -22 21 -41 46 -98 128 -276 240 -461 291 -81 23 -336
25 -419 4 -96 -24 -90 -12 -90 -182 0 -90 -4 -149 -9 -147 -18 6 -670 543
-668 550 1 3 153 130 337 282 l335 275 5 -151 c4 -120 8 -152 20 -159z"/>
</g>
</svg>
