<?xml version="1.0" standalone="no"?>
<!DOCTYPE svg PUBLIC "-//W3C//DTD SVG 20010904//EN"
 "http://www.w3.org/TR/2001/REC-SVG-20010904/DTD/svg10.dtd">
<svg version="1.0" xmlns="http://www.w3.org/2000/svg"
 width="1600.000000pt" height="1600.000000pt" viewBox="0 0 1600.000000 1600.000000"
 preserveAspectRatio="xMidYMid meet">

<g transform="translate(0.000000,1600.000000) scale(0.100000,-0.100000)"
fill="#000000" stroke="none">
<path d="M4415 11986 c-16 -7 -808 -701 -1760 -1541 -952 -841 -1874 -1656
-2051 -1811 -345 -306 -361 -323 -384 -438 -20 -96 6 -225 58 -291 37 -47
4105 -3635 4147 -3658 29 -15 58 -21 105 -21 116 -1 227 71 287 186 l28 53 3
615 3 615 -979 892 c-538 490 -996 913 -1018 940 -348 416 -311 907 98 1288
47 44 494 451 992 905 l906 825 -3 610 c-2 599 -2 611 -23 656 -31 67 -87 124
-156 159 -53 26 -72 30 -142 30 -45 -1 -94 -7 -111 -14z"/>
<path d="M7445 11986 c-47 -21 -4105 -3607 -4142 -3661 -43 -62 -57 -113 -56
-210 0 -99 28 -177 81 -232 87 -88 4096 -3620 4130 -3638 26 -13 57 -19 102
-19 117 -1 226 70 287 186 l28 53 3 918 3 917 212 0 c334 0 764 -22 1172 -61
2512 -235 4409 -1148 5555 -2674 440 -586 760 -1267 906 -1930 18 -82 33 -143
33 -135 2 53 -22 451 -39 635 -133 1456 -547 2895 -1160 4035 -1085 2019
-2792 3250 -5040 3634 -474 82 -1082 135 -1532 136 l-107 0 -3 918 -3 917 -23
43 c-36 67 -88 119 -154 152 -53 26 -72 30 -142 30 -45 -1 -94 -7 -111 -14z"/>
</g>
</svg>
